<mxfile host="app.diagrams.net" modified="2024-03-21T12:30:09.592Z" agent="Mozilla/5.0 (Windows NT 10.0; Win64; x64; rv:124.0) Gecko/20100101 Firefox/124.0" etag="cPcwgRGWuyCn-xnVTfWg" version="24.0.7" type="device">
  <diagram name="Page-1" id="kIL4RDuWdj9RxP5gV15j">
    <mxGraphModel dx="1050" dy="503" grid="1" gridSize="10" guides="1" tooltips="1" connect="1" arrows="1" fold="1" page="1" pageScale="1" pageWidth="850" pageHeight="1100" math="0" shadow="0">
      <root>
        <mxCell id="0" />
        <mxCell id="1" parent="0" />
        <mxCell id="nMa8dbpcciZCXDAcvLkY-8" value="" style="swimlane;startSize=0;" vertex="1" parent="1">
          <mxGeometry x="40" y="40" width="270" height="280" as="geometry" />
        </mxCell>
        <mxCell id="nMa8dbpcciZCXDAcvLkY-6" value="Python server" style="text;html=1;align=left;verticalAlign=middle;resizable=0;points=[];autosize=1;strokeColor=none;fillColor=none;" vertex="1" parent="nMa8dbpcciZCXDAcvLkY-8">
          <mxGeometry x="35" width="100" height="30" as="geometry" />
        </mxCell>
        <mxCell id="nMa8dbpcciZCXDAcvLkY-2" value="Static file server (HTTP)" style="rounded=0;whiteSpace=wrap;html=1;" vertex="1" parent="nMa8dbpcciZCXDAcvLkY-8">
          <mxGeometry x="20" y="100" width="230" height="40" as="geometry" />
        </mxCell>
        <mxCell id="nMa8dbpcciZCXDAcvLkY-7" value="Socket.IO server (Websockets)" style="rounded=0;whiteSpace=wrap;html=1;" vertex="1" parent="nMa8dbpcciZCXDAcvLkY-8">
          <mxGeometry x="20" y="40" width="230" height="40" as="geometry" />
        </mxCell>
        <mxCell id="nMa8dbpcciZCXDAcvLkY-19" value="&lt;div&gt;Configuration file&lt;/div&gt;&lt;div&gt;(config.ini)&lt;br&gt;&lt;/div&gt;" style="shape=document;whiteSpace=wrap;html=1;boundedLbl=1;" vertex="1" parent="nMa8dbpcciZCXDAcvLkY-8">
          <mxGeometry x="20" y="180" width="110" height="80" as="geometry" />
        </mxCell>
        <mxCell id="nMa8dbpcciZCXDAcvLkY-25" style="edgeStyle=orthogonalEdgeStyle;rounded=0;orthogonalLoop=1;jettySize=auto;html=1;exitX=0.5;exitY=0;exitDx=0;exitDy=0;entryX=0.5;entryY=1;entryDx=0;entryDy=0;" edge="1" parent="nMa8dbpcciZCXDAcvLkY-8" source="nMa8dbpcciZCXDAcvLkY-21" target="nMa8dbpcciZCXDAcvLkY-2">
          <mxGeometry relative="1" as="geometry">
            <Array as="points">
              <mxPoint x="195" y="160" />
              <mxPoint x="135" y="160" />
            </Array>
          </mxGeometry>
        </mxCell>
        <mxCell id="nMa8dbpcciZCXDAcvLkY-21" value="Static website files" style="shape=document;whiteSpace=wrap;html=1;boundedLbl=1;" vertex="1" parent="nMa8dbpcciZCXDAcvLkY-8">
          <mxGeometry x="140" y="180" width="110" height="80" as="geometry" />
        </mxCell>
        <mxCell id="nMa8dbpcciZCXDAcvLkY-12" value="" style="swimlane;startSize=0;" vertex="1" parent="1">
          <mxGeometry x="480" y="40" width="270" height="280" as="geometry" />
        </mxCell>
        <mxCell id="nMa8dbpcciZCXDAcvLkY-13" value="Javascript browser application" style="text;html=1;align=left;verticalAlign=middle;resizable=0;points=[];autosize=1;strokeColor=none;fillColor=none;" vertex="1" parent="nMa8dbpcciZCXDAcvLkY-12">
          <mxGeometry x="35" width="180" height="30" as="geometry" />
        </mxCell>
        <mxCell id="nMa8dbpcciZCXDAcvLkY-14" value="Three.js (WebGL)" style="rounded=0;whiteSpace=wrap;html=1;" vertex="1" parent="nMa8dbpcciZCXDAcvLkY-12">
          <mxGeometry x="20" y="100" width="230" height="40" as="geometry" />
        </mxCell>
        <mxCell id="nMa8dbpcciZCXDAcvLkY-15" value="Socket.IO client (Websockets)" style="rounded=0;whiteSpace=wrap;html=1;" vertex="1" parent="nMa8dbpcciZCXDAcvLkY-12">
          <mxGeometry x="20" y="40" width="230" height="40" as="geometry" />
        </mxCell>
        <mxCell id="nMa8dbpcciZCXDAcvLkY-17" value="" style="endArrow=none;dashed=1;html=1;dashPattern=1 3;strokeWidth=2;rounded=0;exitX=1;exitY=0.5;exitDx=0;exitDy=0;entryX=0;entryY=0.5;entryDx=0;entryDy=0;" edge="1" parent="1" source="nMa8dbpcciZCXDAcvLkY-7" target="nMa8dbpcciZCXDAcvLkY-15">
          <mxGeometry width="50" height="50" relative="1" as="geometry">
            <mxPoint x="320" y="240" as="sourcePoint" />
            <mxPoint x="370" y="190" as="targetPoint" />
          </mxGeometry>
        </mxCell>
        <mxCell id="nMa8dbpcciZCXDAcvLkY-18" style="edgeStyle=orthogonalEdgeStyle;rounded=0;orthogonalLoop=1;jettySize=auto;html=1;exitX=1;exitY=0.5;exitDx=0;exitDy=0;entryX=0;entryY=0.5;entryDx=0;entryDy=0;" edge="1" parent="1" source="nMa8dbpcciZCXDAcvLkY-2" target="nMa8dbpcciZCXDAcvLkY-12">
          <mxGeometry relative="1" as="geometry" />
        </mxCell>
        <mxCell id="nMa8dbpcciZCXDAcvLkY-27" value="External API goes here" style="shape=parallelogram;perimeter=parallelogramPerimeter;whiteSpace=wrap;html=1;fixedSize=1;" vertex="1" parent="1">
          <mxGeometry x="40" y="360" width="270" height="60" as="geometry" />
        </mxCell>
      </root>
    </mxGraphModel>
  </diagram>
</mxfile>
